<?xml version="1.0" standalone="no"?>
<!DOCTYPE svg PUBLIC "-//W3C//DTD SVG 20010904//EN"
 "http://www.w3.org/TR/2001/REC-SVG-20010904/DTD/svg10.dtd">
<svg version="1.0" xmlns="http://www.w3.org/2000/svg"
 width="512.000000pt" height="512.000000pt" viewBox="0 0 512.000000 512.000000"
 preserveAspectRatio="xMidYMid meet">

<g transform="translate(0.000000,512.000000) scale(0.100000,-0.100000)"
fill="#000000" stroke="none">
<path d="M2220 5044 c-41 -35 -106 -171 -211 -445 l-84 -217 -117 -47 -116
-48 -199 80 c-346 141 -464 179 -516 167 -22 -5 -88 -63 -239 -212 -115 -113
-211 -216 -214 -229 -12 -45 43 -192 190 -512 42 -90 76 -170 76 -177 0 -18
-81 -207 -94 -220 -6 -6 -110 -50 -231 -99 -269 -107 -391 -164 -433 -203
l-32 -30 0 -300 c0 -288 1 -300 21 -326 29 -37 151 -93 434 -199 l247 -93 48
-113 48 -113 -90 -206 c-102 -237 -168 -423 -168 -473 0 -32 17 -52 212 -246
151 -149 221 -212 241 -215 54 -10 225 51 552 196 l150 67 117 -47 117 -47 81
-196 c117 -281 193 -433 230 -464 l32 -27 298 0 298 0 32 26 c41 35 109 177
210 439 45 116 86 215 93 221 7 6 60 30 118 54 l106 42 241 -96 c405 -163 450
-174 510 -133 20 15 124 114 231 221 l193 195 -7 48 c-9 62 -56 180 -171 432
-52 113 -94 210 -94 216 0 18 81 209 94 221 6 6 110 50 231 99 260 103 394
167 435 205 l30 28 0 302 0 303 -34 32 c-41 39 -139 82 -440 194 l-229 86 -47
114 -47 113 89 207 c101 235 168 422 168 472 0 31 -17 51 -204 237 -118 116
-219 208 -239 217 -29 12 -41 12 -90 -1 -68 -18 -267 -97 -471 -188 l-150 -66
-117 46 -118 47 -47 111 c-174 418 -219 512 -266 551 l-30 25 -298 0 -298 0
-32 -26z m583 -1658 c154 -46 278 -119 385 -227 333 -336 334 -862 1 -1198
-105 -105 -262 -197 -404 -236 -82 -22 -272 -30 -364 -16 -183 29 -353 116
-485 248 -418 418 -304 1104 229 1370 139 70 253 94 420 89 104 -3 148 -9 218
-30z"/>
</g>
</svg>
